<?xml version="1.0" encoding="UTF-8" standalone="no"?>
<svg
   xmlns:dc="http://purl.org/dc/elements/1.1/"
   xmlns:cc="http://creativecommons.org/ns#"
   xmlns:rdf="http://www.w3.org/1999/02/22-rdf-syntax-ns#"
   xmlns:svg="http://www.w3.org/2000/svg"
   xmlns="http://www.w3.org/2000/svg"
   xmlns:sodipodi="http://sodipodi.sourceforge.net/DTD/sodipodi-0.dtd"
   xmlns:inkscape="http://www.inkscape.org/namespaces/inkscape"
   sodipodi:docname="left_arm.svg"
   inkscape:version="1.0beta2 (6318c8c, 2019-12-15)"
   id="svg8"
   version="1.1"
   viewBox="0 0 210 297"
   height="297mm"
   width="210mm">
  <defs
     id="defs2" />
  <sodipodi:namedview
     inkscape:window-maximized="0"
     inkscape:window-y="23"
     inkscape:window-x="0"
     inkscape:window-height="880"
     inkscape:window-width="1600"
     inkscape:snap-page="false"
     showgrid="false"
     inkscape:document-rotation="0"
     inkscape:current-layer="layer2"
     inkscape:document-units="mm"
     inkscape:cy="301.23453"
     inkscape:cx="335.67137"
     inkscape:zoom="6.076348"
     inkscape:pageshadow="2"
     inkscape:pageopacity="0.0"
     borderopacity="1.0"
     bordercolor="#666666"
     pagecolor="#ffffff"
     id="base" />
  <metadata
     id="metadata5">
    <rdf:RDF>
      <cc:Work
         rdf:about="">
        <dc:format>image/svg+xml</dc:format>
        <dc:type
           rdf:resource="http://purl.org/dc/dcmitype/StillImage" />
        <dc:title></dc:title>
      </cc:Work>
    </rdf:RDF>
  </metadata>
  <g
     inkscape:label="slices"
     id="layer13"
     inkscape:groupmode="layer">
    <g
       style="display:none"
       inkscape:label="Forearms"
       id="layer6"
       inkscape:groupmode="layer">
      <g
         style="display:inline"
         inkscape:label="Right "
         id="layer8"
         inkscape:groupmode="layer">
        <path
           id="rect70-4"
           style="fill:#c87137;stroke-width:0.215013"
           d="m 101.75035,89.037122 0.76737,-0.501928 c 0.79817,-0.522069 7.09816,-2.89727 6.80104,-3.718103 l -0.14785,-0.408401 c -0.29711,-0.820834 -3.99061,0.199012 -3.99061,0.199012 l -3.04886,1.16843 c -0.92254,0.353559 -3.712276,0.65643 -3.32116,1.450275 l 0.587886,1.19319 c 0.391143,0.793836 1.424874,0.962491 2.352194,0.617524 z"
           inkscape:connector-curvature="0"
           sodipodi:nodetypes="sssscsssss"
           inkscape:transform-center-x="-3.7373647"
           inkscape:transform-center-y="-1.0637232" />
      </g>
      <g
         style="display:inline"
         inkscape:label="Left "
         id="layer7"
         inkscape:groupmode="layer">
        <path
           inkscape:transform-center-y="1.3105597"
           inkscape:transform-center-x="-3.7161398"
           sodipodi:nodetypes="sssscsssss"
           inkscape:connector-curvature="0"
           d="m 101.75246,74.492928 0.75812,0.570318 c 0.78853,0.593206 7.07127,3.396007 6.74354,4.26822 l -0.16308,0.43396 c -0.32772,0.872215 -4.02368,-0.369741 -4.02368,-0.369741 l -3.03986,-1.37682 c -0.91984,-0.416617 -3.727155,-0.851398 -3.305403,-1.690891 l 0.63394,-1.261797 c 0.421783,-0.839481 1.471503,-0.980797 2.396443,-0.573247 z"
           style="fill:#c87137;stroke-width:0.224351"
           id="rect70" />
      </g>
    </g>
    <g
       style="display:none"
       inkscape:label="Feet"
       id="layer11"
       inkscape:groupmode="layer">
      <g
         style="display:inline"
         inkscape:label="Left "
         id="layer12"
         inkscape:groupmode="layer">
        <rect
           ry="1.2770425"
           y="77.536812"
           x="95.594818"
           height="2.554085"
           width="4.7966962"
           id="rect171"
           style="fill:#28170b;stroke-width:0.216915" />
      </g>
      <g
         style="display:inline"
         inkscape:groupmode="layer"
         id="g184"
         inkscape:label="Right">
        <rect
           style="fill:#28170b;stroke-width:0.216915"
           id="rect171-0"
           width="4.7966962"
           height="2.554085"
           x="95.558464"
           y="83.537605"
           ry="1.2770425" />
      </g>
    </g>
    <g
       style="display:none"
       inkscape:label="Legs"
       id="layer9"
       inkscape:groupmode="layer">
      <g
         style="display:inline"
         inkscape:label="Left "
         id="layer10"
         inkscape:groupmode="layer">
        <rect
           style="fill:#668000;stroke-width:0.300883"
           id="rect136"
           width="10.652402"
           height="8.7212658"
           x="87.36705"
           y="73.757332"
           ry="4.3606329" />
      </g>
      <g
         style="display:inline"
         inkscape:groupmode="layer"
         id="g156"
         inkscape:label="Right">
        <rect
           ry="4.2360435"
           y="80.733658"
           x="87.616219"
           height="8.4720869"
           width="10.278634"
           id="rect154"
           style="fill:#668000;stroke-width:0.291304" />
      </g>
    </g>
    <g
       style="display:inline"
       inkscape:label="Arms"
       id="layer3"
       inkscape:groupmode="layer">
      <g
         style="display:none"
         inkscape:label="Right"
         id="layer5"
         inkscape:groupmode="layer">
        <path
           inkscape:transform-center-y="-0.43810556"
           inkscape:transform-center-x="-3.8790294"
           id="rect51-9"
           style="fill:#6c5353;stroke-width:0.317019"
           d="m 92.404775,93.374801 6.632638,-2.487973 c 1.522377,-0.571068 3.667357,-2.217804 2.922777,-3.571143 l -0.34174,-0.621114 c -0.74457,-1.353337 -1.3394,-0.274189 -2.98594,-0.10659 l -6.550305,0.666753 c -1.64655,0.167609 -2.716372,2.167772 -2.63741,3.665906 l 0.03752,0.711637 c 0.07896,1.498134 1.400082,2.313587 2.922471,1.742523 z"
           inkscape:connector-curvature="0"
           sodipodi:nodetypes="sssssssss" />
      </g>
      <g
         style="display:inline"
         inkscape:label="Left"
         id="layer4"
         inkscape:groupmode="layer">
        <path
           inkscape:transform-center-y="1.5870836"
           inkscape:transform-center-x="-4.1421261"
           sodipodi:nodetypes="sssssssss"
           inkscape:connector-curvature="0"
           d="m 92.640055,69.549241 6.650128,2.872529 c 1.526397,0.659335 3.680687,2.522813 2.941257,4.012071 l -0.33936,0.683493 c -0.73943,1.489259 -1.33956,0.281722 -2.988482,0.06802 L 92.343809,76.335213 C 90.694877,76.12151 89.61527,73.883929 89.687789,72.222788 l 0.03445,-0.789071 c 0.07252,-1.661141 1.391414,-2.543807 2.917819,-1.884476 z"
           style="fill:#6c5353;stroke-width:0.334111"
           id="rect51" />
      </g>
    </g>
    <g
       style="display:none"
       inkscape:label="Shoulders"
       id="layer2"
       inkscape:groupmode="layer">
      <path
         sodipodi:nodetypes="sssssss"
         inkscape:connector-curvature="0"
         d="m 91.437837,69.196461 c 3.264773,0 2.853041,2.329276 3.640565,4.636825 1.867734,5.472701 2.162748,9.293021 0.122275,15.124959 -0.670157,1.915395 -0.09411,4.751636 -3.358874,4.751636 -3.264773,0 -4.800628,-3.986725 -3.993881,-6.288633 1.336424,-3.813243 -0.03597,-9.916706 -0.703749,-12.392907 -0.632301,-2.344653 1.02889,-5.83188 4.293664,-5.83188 z"
         style="fill:#916f6f;stroke-width:0.29432"
         id="rect41" />
    </g>
    <g
       style="display:none"
       id="layer1"
       inkscape:groupmode="layer"
       inkscape:label="Head">
      <path
         sodipodi:nodetypes="sssss"
         inkscape:connector-curvature="0"
         d="m 97.727267,81.551545 c 0,2.759988 -2.420899,4.093987 -5.798713,4.093988 -3.377814,-10e-7 -5.390437,-1.554008 -5.390437,-4.313997 0,-2.75999 2.116286,-4.228571 5.494099,-4.228571 3.377814,0 5.695051,1.68859 5.695051,4.44858 z"
         style="fill:#c87137;stroke-width:0.174682"
         id="path37" />
      <rect
         ry="0.24731177"
         y="76.726608"
         x="91.070686"
         height="0.49462354"
         width="2.0084715"
         id="rect192"
         style="fill:#c87137;stroke-width:0.264583" />
      <rect
         style="fill:#c87137;stroke-width:0.264583"
         id="rect194"
         width="2.0084715"
         height="0.49462354"
         x="91.070686"
         y="76.726608"
         ry="0.24731177" />
      <rect
         ry="0.24731177"
         y="85.54258"
         x="91.070686"
         height="0.49462354"
         width="2.0084715"
         id="rect196"
         style="fill:#c87137;stroke-width:0.264583" />
      <path
         sodipodi:nodetypes="sssssss"
         inkscape:connector-curvature="0"
         d="m 97.579796,81.294198 h 0.0099 c 0.152647,0 0.460607,0.201373 0.460607,0.408485 0,0.207115 -0.30796,0.339217 -0.460607,0.339217 h -0.0099 c -0.152648,0 -0.275537,-0.166737 -0.275537,-0.373852 0,-0.207113 0.122889,-0.37385 0.275537,-0.37385 z"
         style="fill:#c87137;stroke-width:0.304099"
         id="rect198" />
    </g>
  </g>
</svg>
